<?xml version="1.0" encoding="utf-8"?>
<!-- Generator: Adobe Illustrator 25.4.1, SVG Export Plug-In . SVG Version: 6.00 Build 0)  -->
<svg version="1.1" id="Layer_1" xmlns="http://www.w3.org/2000/svg" xmlns:xlink="http://www.w3.org/1999/xlink" x="0px" y="0px"
	 viewBox="0 0 640 640" style="enable-background:new 0 0 640 640;" xml:space="preserve">
<style type="text/css">
	.st0{fill:#FE3643;}
</style>
<path class="st0" d="M48.5,274.7c-25,25-25,65.5,0,90.5l226.3,226.3c25,25,65.5,25,90.5,0l226.3-226.3c25-25,25-65.5,0-90.5
	L365.3,48.5c-25-25-65.5-25-90.5,0L48.5,274.7z M297.4,297.4c12.5-12.5,32.7-12.5,45.3,0c12.5,12.5,12.5,32.7,0,45.3
	c-12.5,12.5-32.7,12.5-45.3,0C284.9,330.1,284.9,309.9,297.4,297.4z"/>
</svg>
